<?xml version="1.0" encoding="utf-8" standalone="no"?>
<!DOCTYPE svg PUBLIC "-//W3C//DTD SVG 1.1//EN"
  "http://www.w3.org/Graphics/SVG/1.1/DTD/svg11.dtd">
<svg xmlns:xlink="http://www.w3.org/1999/xlink" width="1008pt" height="720pt" viewBox="0 0 1008 720" xmlns="http://www.w3.org/2000/svg" version="1.1">
 <metadata>
  <rdf:RDF xmlns:dc="http://purl.org/dc/elements/1.1/" xmlns:cc="http://creativecommons.org/ns#" xmlns:rdf="http://www.w3.org/1999/02/22-rdf-syntax-ns#">
   <cc:Work>
    <dc:type rdf:resource="http://purl.org/dc/dcmitype/StillImage"/>
    <dc:date>2024-08-07T16:57:42.388766</dc:date>
    <dc:format>image/svg+xml</dc:format>
    <dc:creator>
     <cc:Agent>
      <dc:title>Matplotlib v3.9.1.post1, https://matplotlib.org/</dc:title>
     </cc:Agent>
    </dc:creator>
   </cc:Work>
  </rdf:RDF>
 </metadata>
 <defs>
  <style type="text/css">*{stroke-linejoin: round; stroke-linecap: butt}</style>
 </defs>
 <g id="figure_1">
  <g id="patch_1">
   <path d="M 0 720 
L 1008 720 
L 1008 0 
L 0 0 
z
" style="fill: #ffffff"/>
  </g>
  <g id="axes_1">
   <g id="patch_2">
    <path d="M 438.48 137.88 
L 594.72 137.88 
Q 618.156 137.88 618.156 126 
L 618.156 86.4 
Q 618.156 74.52 594.72 74.52 
L 438.48 74.52 
Q 415.044 74.52 415.044 86.4 
L 415.044 126 
Q 415.044 137.88 438.48 137.88 
z
" clip-path="url(#p0c525e8e83)" style="fill: #d3d3d3; stroke: #000000; stroke-linejoin: miter"/>
   </g>
   <g id="patch_3">
    <path d="M 438.48 217.08 
L 594.72 217.08 
Q 618.156 217.08 618.156 205.2 
L 618.156 165.6 
Q 618.156 153.72 594.72 153.72 
L 438.48 153.72 
Q 415.044 153.72 415.044 165.6 
L 415.044 205.2 
Q 415.044 217.08 438.48 217.08 
z
" clip-path="url(#p0c525e8e83)" style="fill: #d3d3d3; stroke: #000000; stroke-linejoin: miter"/>
   </g>
   <g id="patch_4">
    <path d="M 438.48 296.28 
L 594.72 296.28 
Q 618.156 296.28 618.156 284.4 
L 618.156 244.8 
Q 618.156 232.92 594.72 232.92 
L 438.48 232.92 
Q 415.044 232.92 415.044 244.8 
L 415.044 284.4 
Q 415.044 296.28 438.48 296.28 
z
" clip-path="url(#p0c525e8e83)" style="fill: #d3d3d3; stroke: #000000; stroke-linejoin: miter"/>
   </g>
   <g id="patch_5">
    <path d="M 438.48 375.48 
L 594.72 375.48 
Q 618.156 375.48 618.156 363.6 
L 618.156 324 
Q 618.156 312.12 594.72 312.12 
L 438.48 312.12 
Q 415.044 312.12 415.044 324 
L 415.044 363.6 
Q 415.044 375.48 438.48 375.48 
z
" clip-path="url(#p0c525e8e83)" style="fill: #d3d3d3; stroke: #000000; stroke-linejoin: miter"/>
   </g>
   <g id="patch_6">
    <path d="M 438.48 454.68 
L 594.72 454.68 
Q 618.156 454.68 618.156 442.8 
L 618.156 403.2 
Q 618.156 391.32 594.72 391.32 
L 438.48 391.32 
Q 415.044 391.32 415.044 403.2 
L 415.044 442.8 
Q 415.044 454.68 438.48 454.68 
z
" clip-path="url(#p0c525e8e83)" style="fill: #d3d3d3; stroke: #000000; stroke-linejoin: miter"/>
   </g>
   <g id="patch_7">
    <path d="M 438.48 533.88 
L 594.72 533.88 
Q 618.156 533.88 618.156 522 
L 618.156 482.4 
Q 618.156 470.52 594.72 470.52 
L 438.48 470.52 
Q 415.044 470.52 415.044 482.4 
L 415.044 522 
Q 415.044 533.88 438.48 533.88 
z
" clip-path="url(#p0c525e8e83)" style="fill: #d3d3d3; stroke: #000000; stroke-linejoin: miter"/>
   </g>
   <g id="patch_8">
    <path d="M 438.48 613.08 
L 594.72 613.08 
Q 618.156 613.08 618.156 601.2 
L 618.156 561.6 
Q 618.156 549.72 594.72 549.72 
L 438.48 549.72 
Q 415.044 549.72 415.044 561.6 
L 415.044 601.2 
Q 415.044 613.08 438.48 613.08 
z
" clip-path="url(#p0c525e8e83)" style="fill: #d3d3d3; stroke: #000000; stroke-linejoin: miter"/>
   </g>
   <g id="patch_9">
    <path d="M 438.48 692.28 
L 594.72 692.28 
Q 618.156 692.28 618.156 680.4 
L 618.156 640.8 
Q 618.156 628.92 594.72 628.92 
L 438.48 628.92 
Q 415.044 628.92 415.044 640.8 
L 415.044 680.4 
Q 415.044 692.28 438.48 692.28 
z
" clip-path="url(#p0c525e8e83)" style="fill: #d3d3d3; stroke: #000000; stroke-linejoin: miter"/>
   </g>
   <g id="patch_10">
    <path d="M 438.48 771.48 
L 594.72 771.48 
Q 618.156 771.48 618.156 759.6 
L 618.156 720 
Q 618.156 708.12 594.72 708.12 
L 438.48 708.12 
Q 415.044 708.12 415.044 720 
L 415.044 759.6 
Q 415.044 771.48 438.48 771.48 
z
" clip-path="url(#p0c525e8e83)" style="fill: #d3d3d3; stroke: #000000; stroke-linejoin: miter"/>
   </g>
   <g id="patch_11">
    <path d="M 438.48 850.68 
L 594.72 850.68 
Q 618.156 850.68 618.156 838.8 
L 618.156 799.2 
Q 618.156 787.32 594.72 787.32 
L 438.48 787.32 
Q 415.044 787.32 415.044 799.2 
L 415.044 838.8 
Q 415.044 850.68 438.48 850.68 
z
" clip-path="url(#p0c525e8e83)" style="fill: #d3d3d3; stroke: #000000; stroke-linejoin: miter"/>
   </g>
   <g id="patch_12">
    <path d="M 438.48 929.88 
L 594.72 929.88 
Q 618.156 929.88 618.156 918 
L 618.156 878.4 
Q 618.156 866.52 594.72 866.52 
L 438.48 866.52 
Q 415.044 866.52 415.044 878.4 
L 415.044 918 
Q 415.044 929.88 438.48 929.88 
z
" clip-path="url(#p0c525e8e83)" style="fill: #d3d3d3; stroke: #000000; stroke-linejoin: miter"/>
   </g>
   <g id="patch_13">
    <path d="M 438.48 1009.08 
L 594.72 1009.08 
Q 618.156 1009.08 618.156 997.2 
L 618.156 957.6 
Q 618.156 945.72 594.72 945.72 
L 438.48 945.72 
Q 415.044 945.72 415.044 957.6 
L 415.044 997.2 
Q 415.044 1009.08 438.48 1009.08 
z
" clip-path="url(#p0c525e8e83)" style="fill: #d3d3d3; stroke: #000000; stroke-linejoin: miter"/>
   </g>
   <g id="patch_14">
    <path d="M 126 415.08 
L 282.24 415.08 
Q 305.676 415.08 305.676 403.2 
L 305.676 363.6 
Q 305.676 351.72 282.24 351.72 
L 126 351.72 
Q 102.564 351.72 102.564 363.6 
L 102.564 403.2 
Q 102.564 415.08 126 415.08 
z
" clip-path="url(#p0c525e8e83)" style="fill: #d3d3d3; stroke: #000000; stroke-linejoin: miter"/>
   </g>
   <g id="patch_15">
    <path d="M 126 494.28 
L 282.24 494.28 
Q 305.676 494.28 305.676 482.4 
L 305.676 442.8 
Q 305.676 430.92 282.24 430.92 
L 126 430.92 
Q 102.564 430.92 102.564 442.8 
L 102.564 482.4 
Q 102.564 494.28 126 494.28 
z
" clip-path="url(#p0c525e8e83)" style="fill: #d3d3d3; stroke: #000000; stroke-linejoin: miter"/>
   </g>
   <g id="patch_16">
    <path d="M 126 573.48 
L 282.24 573.48 
Q 305.676 573.48 305.676 561.6 
L 305.676 522 
Q 305.676 510.12 282.24 510.12 
L 126 510.12 
Q 102.564 510.12 102.564 522 
L 102.564 561.6 
Q 102.564 573.48 126 573.48 
z
" clip-path="url(#p0c525e8e83)" style="fill: #d3d3d3; stroke: #000000; stroke-linejoin: miter"/>
   </g>
   <g id="patch_17">
    <path d="M 126 652.68 
L 282.24 652.68 
Q 305.676 652.68 305.676 640.8 
L 305.676 601.2 
Q 305.676 589.32 282.24 589.32 
L 126 589.32 
Q 102.564 589.32 102.564 601.2 
L 102.564 640.8 
Q 102.564 652.68 126 652.68 
z
" clip-path="url(#p0c525e8e83)" style="fill: #d3d3d3; stroke: #000000; stroke-linejoin: miter"/>
   </g>
   <g id="patch_18">
    <path d="M 126 731.88 
L 282.24 731.88 
Q 305.676 731.88 305.676 720 
L 305.676 680.4 
Q 305.676 668.52 282.24 668.52 
L 126 668.52 
Q 102.564 668.52 102.564 680.4 
L 102.564 720 
Q 102.564 731.88 126 731.88 
z
" clip-path="url(#p0c525e8e83)" style="fill: #d3d3d3; stroke: #000000; stroke-linejoin: miter"/>
   </g>
   <g id="text_1">
    <!-- Start -->
    <g transform="translate(501.943125 109.51125) scale(0.12 -0.12)">
     <defs>
      <path id="DejaVuSans-53" d="M 3425 4513 
L 3425 3897 
Q 3066 4069 2747 4153 
Q 2428 4238 2131 4238 
Q 1616 4238 1336 4038 
Q 1056 3838 1056 3469 
Q 1056 3159 1242 3001 
Q 1428 2844 1947 2747 
L 2328 2669 
Q 3034 2534 3370 2195 
Q 3706 1856 3706 1288 
Q 3706 609 3251 259 
Q 2797 -91 1919 -91 
Q 1588 -91 1214 -16 
Q 841 59 441 206 
L 441 856 
Q 825 641 1194 531 
Q 1563 422 1919 422 
Q 2459 422 2753 634 
Q 3047 847 3047 1241 
Q 3047 1584 2836 1778 
Q 2625 1972 2144 2069 
L 1759 2144 
Q 1053 2284 737 2584 
Q 422 2884 422 3419 
Q 422 4038 858 4394 
Q 1294 4750 2059 4750 
Q 2388 4750 2728 4690 
Q 3069 4631 3425 4513 
z
" transform="scale(0.015625)"/>
      <path id="DejaVuSans-74" d="M 1172 4494 
L 1172 3500 
L 2356 3500 
L 2356 3053 
L 1172 3053 
L 1172 1153 
Q 1172 725 1289 603 
Q 1406 481 1766 481 
L 2356 481 
L 2356 0 
L 1766 0 
Q 1100 0 847 248 
Q 594 497 594 1153 
L 594 3053 
L 172 3053 
L 172 3500 
L 594 3500 
L 594 4494 
L 1172 4494 
z
" transform="scale(0.015625)"/>
      <path id="DejaVuSans-61" d="M 2194 1759 
Q 1497 1759 1228 1600 
Q 959 1441 959 1056 
Q 959 750 1161 570 
Q 1363 391 1709 391 
Q 2188 391 2477 730 
Q 2766 1069 2766 1631 
L 2766 1759 
L 2194 1759 
z
M 3341 1997 
L 3341 0 
L 2766 0 
L 2766 531 
Q 2569 213 2275 61 
Q 1981 -91 1556 -91 
Q 1019 -91 701 211 
Q 384 513 384 1019 
Q 384 1609 779 1909 
Q 1175 2209 1959 2209 
L 2766 2209 
L 2766 2266 
Q 2766 2663 2505 2880 
Q 2244 3097 1772 3097 
Q 1472 3097 1187 3025 
Q 903 2953 641 2809 
L 641 3341 
Q 956 3463 1253 3523 
Q 1550 3584 1831 3584 
Q 2591 3584 2966 3190 
Q 3341 2797 3341 1997 
z
" transform="scale(0.015625)"/>
      <path id="DejaVuSans-72" d="M 2631 2963 
Q 2534 3019 2420 3045 
Q 2306 3072 2169 3072 
Q 1681 3072 1420 2755 
Q 1159 2438 1159 1844 
L 1159 0 
L 581 0 
L 581 3500 
L 1159 3500 
L 1159 2956 
Q 1341 3275 1631 3429 
Q 1922 3584 2338 3584 
Q 2397 3584 2469 3576 
Q 2541 3569 2628 3553 
L 2631 2963 
z
" transform="scale(0.015625)"/>
     </defs>
     <use xlink:href="#DejaVuSans-53"/>
     <use xlink:href="#DejaVuSans-74" x="63.476562"/>
     <use xlink:href="#DejaVuSans-61" x="102.685547"/>
     <use xlink:href="#DejaVuSans-72" x="163.964844"/>
     <use xlink:href="#DejaVuSans-74" x="205.078125"/>
    </g>
   </g>
   <g id="text_2">
    <!-- User Input: -->
    <g transform="translate(483.460313 181.992562) scale(0.12 -0.12)">
     <defs>
      <path id="DejaVuSans-55" d="M 556 4666 
L 1191 4666 
L 1191 1831 
Q 1191 1081 1462 751 
Q 1734 422 2344 422 
Q 2950 422 3222 751 
Q 3494 1081 3494 1831 
L 3494 4666 
L 4128 4666 
L 4128 1753 
Q 4128 841 3676 375 
Q 3225 -91 2344 -91 
Q 1459 -91 1007 375 
Q 556 841 556 1753 
L 556 4666 
z
" transform="scale(0.015625)"/>
      <path id="DejaVuSans-73" d="M 2834 3397 
L 2834 2853 
Q 2591 2978 2328 3040 
Q 2066 3103 1784 3103 
Q 1356 3103 1142 2972 
Q 928 2841 928 2578 
Q 928 2378 1081 2264 
Q 1234 2150 1697 2047 
L 1894 2003 
Q 2506 1872 2764 1633 
Q 3022 1394 3022 966 
Q 3022 478 2636 193 
Q 2250 -91 1575 -91 
Q 1294 -91 989 -36 
Q 684 19 347 128 
L 347 722 
Q 666 556 975 473 
Q 1284 391 1588 391 
Q 1994 391 2212 530 
Q 2431 669 2431 922 
Q 2431 1156 2273 1281 
Q 2116 1406 1581 1522 
L 1381 1569 
Q 847 1681 609 1914 
Q 372 2147 372 2553 
Q 372 3047 722 3315 
Q 1072 3584 1716 3584 
Q 2034 3584 2315 3537 
Q 2597 3491 2834 3397 
z
" transform="scale(0.015625)"/>
      <path id="DejaVuSans-65" d="M 3597 1894 
L 3597 1613 
L 953 1613 
Q 991 1019 1311 708 
Q 1631 397 2203 397 
Q 2534 397 2845 478 
Q 3156 559 3463 722 
L 3463 178 
Q 3153 47 2828 -22 
Q 2503 -91 2169 -91 
Q 1331 -91 842 396 
Q 353 884 353 1716 
Q 353 2575 817 3079 
Q 1281 3584 2069 3584 
Q 2775 3584 3186 3129 
Q 3597 2675 3597 1894 
z
M 3022 2063 
Q 3016 2534 2758 2815 
Q 2500 3097 2075 3097 
Q 1594 3097 1305 2825 
Q 1016 2553 972 2059 
L 3022 2063 
z
" transform="scale(0.015625)"/>
      <path id="DejaVuSans-20" transform="scale(0.015625)"/>
      <path id="DejaVuSans-49" d="M 628 4666 
L 1259 4666 
L 1259 0 
L 628 0 
L 628 4666 
z
" transform="scale(0.015625)"/>
      <path id="DejaVuSans-6e" d="M 3513 2113 
L 3513 0 
L 2938 0 
L 2938 2094 
Q 2938 2591 2744 2837 
Q 2550 3084 2163 3084 
Q 1697 3084 1428 2787 
Q 1159 2491 1159 1978 
L 1159 0 
L 581 0 
L 581 3500 
L 1159 3500 
L 1159 2956 
Q 1366 3272 1645 3428 
Q 1925 3584 2291 3584 
Q 2894 3584 3203 3211 
Q 3513 2838 3513 2113 
z
" transform="scale(0.015625)"/>
      <path id="DejaVuSans-70" d="M 1159 525 
L 1159 -1331 
L 581 -1331 
L 581 3500 
L 1159 3500 
L 1159 2969 
Q 1341 3281 1617 3432 
Q 1894 3584 2278 3584 
Q 2916 3584 3314 3078 
Q 3713 2572 3713 1747 
Q 3713 922 3314 415 
Q 2916 -91 2278 -91 
Q 1894 -91 1617 61 
Q 1341 213 1159 525 
z
M 3116 1747 
Q 3116 2381 2855 2742 
Q 2594 3103 2138 3103 
Q 1681 3103 1420 2742 
Q 1159 2381 1159 1747 
Q 1159 1113 1420 752 
Q 1681 391 2138 391 
Q 2594 391 2855 752 
Q 3116 1113 3116 1747 
z
" transform="scale(0.015625)"/>
      <path id="DejaVuSans-75" d="M 544 1381 
L 544 3500 
L 1119 3500 
L 1119 1403 
Q 1119 906 1312 657 
Q 1506 409 1894 409 
Q 2359 409 2629 706 
Q 2900 1003 2900 1516 
L 2900 3500 
L 3475 3500 
L 3475 0 
L 2900 0 
L 2900 538 
Q 2691 219 2414 64 
Q 2138 -91 1772 -91 
Q 1169 -91 856 284 
Q 544 659 544 1381 
z
M 1991 3584 
L 1991 3584 
z
" transform="scale(0.015625)"/>
      <path id="DejaVuSans-3a" d="M 750 794 
L 1409 794 
L 1409 0 
L 750 0 
L 750 794 
z
M 750 3309 
L 1409 3309 
L 1409 2516 
L 750 2516 
L 750 3309 
z
" transform="scale(0.015625)"/>
     </defs>
     <use xlink:href="#DejaVuSans-55"/>
     <use xlink:href="#DejaVuSans-73" x="73.193359"/>
     <use xlink:href="#DejaVuSans-65" x="125.292969"/>
     <use xlink:href="#DejaVuSans-72" x="186.816406"/>
     <use xlink:href="#DejaVuSans-20" x="227.929688"/>
     <use xlink:href="#DejaVuSans-49" x="259.716797"/>
     <use xlink:href="#DejaVuSans-6e" x="289.208984"/>
     <use xlink:href="#DejaVuSans-70" x="352.587891"/>
     <use xlink:href="#DejaVuSans-75" x="416.064453"/>
     <use xlink:href="#DejaVuSans-74" x="479.443359"/>
     <use xlink:href="#DejaVuSans-3a" x="518.652344"/>
    </g>
    <!-- Natural Language Query -->
    <g transform="translate(442.808438 195.429937) scale(0.12 -0.12)">
     <defs>
      <path id="DejaVuSans-4e" d="M 628 4666 
L 1478 4666 
L 3547 763 
L 3547 4666 
L 4159 4666 
L 4159 0 
L 3309 0 
L 1241 3903 
L 1241 0 
L 628 0 
L 628 4666 
z
" transform="scale(0.015625)"/>
      <path id="DejaVuSans-6c" d="M 603 4863 
L 1178 4863 
L 1178 0 
L 603 0 
L 603 4863 
z
" transform="scale(0.015625)"/>
      <path id="DejaVuSans-4c" d="M 628 4666 
L 1259 4666 
L 1259 531 
L 3531 531 
L 3531 0 
L 628 0 
L 628 4666 
z
" transform="scale(0.015625)"/>
      <path id="DejaVuSans-67" d="M 2906 1791 
Q 2906 2416 2648 2759 
Q 2391 3103 1925 3103 
Q 1463 3103 1205 2759 
Q 947 2416 947 1791 
Q 947 1169 1205 825 
Q 1463 481 1925 481 
Q 2391 481 2648 825 
Q 2906 1169 2906 1791 
z
M 3481 434 
Q 3481 -459 3084 -895 
Q 2688 -1331 1869 -1331 
Q 1566 -1331 1297 -1286 
Q 1028 -1241 775 -1147 
L 775 -588 
Q 1028 -725 1275 -790 
Q 1522 -856 1778 -856 
Q 2344 -856 2625 -561 
Q 2906 -266 2906 331 
L 2906 616 
Q 2728 306 2450 153 
Q 2172 0 1784 0 
Q 1141 0 747 490 
Q 353 981 353 1791 
Q 353 2603 747 3093 
Q 1141 3584 1784 3584 
Q 2172 3584 2450 3431 
Q 2728 3278 2906 2969 
L 2906 3500 
L 3481 3500 
L 3481 434 
z
" transform="scale(0.015625)"/>
      <path id="DejaVuSans-51" d="M 2522 4238 
Q 1834 4238 1429 3725 
Q 1025 3213 1025 2328 
Q 1025 1447 1429 934 
Q 1834 422 2522 422 
Q 3209 422 3611 934 
Q 4013 1447 4013 2328 
Q 4013 3213 3611 3725 
Q 3209 4238 2522 4238 
z
M 3406 84 
L 4238 -825 
L 3475 -825 
L 2784 -78 
Q 2681 -84 2626 -87 
Q 2572 -91 2522 -91 
Q 1538 -91 948 567 
Q 359 1225 359 2328 
Q 359 3434 948 4092 
Q 1538 4750 2522 4750 
Q 3503 4750 4090 4092 
Q 4678 3434 4678 2328 
Q 4678 1516 4351 937 
Q 4025 359 3406 84 
z
" transform="scale(0.015625)"/>
      <path id="DejaVuSans-79" d="M 2059 -325 
Q 1816 -950 1584 -1140 
Q 1353 -1331 966 -1331 
L 506 -1331 
L 506 -850 
L 844 -850 
Q 1081 -850 1212 -737 
Q 1344 -625 1503 -206 
L 1606 56 
L 191 3500 
L 800 3500 
L 1894 763 
L 2988 3500 
L 3597 3500 
L 2059 -325 
z
" transform="scale(0.015625)"/>
     </defs>
     <use xlink:href="#DejaVuSans-4e"/>
     <use xlink:href="#DejaVuSans-61" x="74.804688"/>
     <use xlink:href="#DejaVuSans-74" x="136.083984"/>
     <use xlink:href="#DejaVuSans-75" x="175.292969"/>
     <use xlink:href="#DejaVuSans-72" x="238.671875"/>
     <use xlink:href="#DejaVuSans-61" x="279.785156"/>
     <use xlink:href="#DejaVuSans-6c" x="341.064453"/>
     <use xlink:href="#DejaVuSans-20" x="368.847656"/>
     <use xlink:href="#DejaVuSans-4c" x="400.634766"/>
     <use xlink:href="#DejaVuSans-61" x="456.347656"/>
     <use xlink:href="#DejaVuSans-6e" x="517.626953"/>
     <use xlink:href="#DejaVuSans-67" x="581.005859"/>
     <use xlink:href="#DejaVuSans-75" x="644.482422"/>
     <use xlink:href="#DejaVuSans-61" x="707.861328"/>
     <use xlink:href="#DejaVuSans-67" x="769.140625"/>
     <use xlink:href="#DejaVuSans-65" x="832.617188"/>
     <use xlink:href="#DejaVuSans-20" x="894.140625"/>
     <use xlink:href="#DejaVuSans-51" x="925.927734"/>
     <use xlink:href="#DejaVuSans-75" x="1004.638672"/>
     <use xlink:href="#DejaVuSans-65" x="1068.017578"/>
     <use xlink:href="#DejaVuSans-72" x="1129.541016"/>
     <use xlink:href="#DejaVuSans-79" x="1170.654297"/>
    </g>
   </g>
   <g id="text_3">
    <!-- FastAPI Endpoint: -->
    <g transform="translate(464.416875 261.025688) scale(0.12 -0.12)">
     <defs>
      <path id="DejaVuSans-46" d="M 628 4666 
L 3309 4666 
L 3309 4134 
L 1259 4134 
L 1259 2759 
L 3109 2759 
L 3109 2228 
L 1259 2228 
L 1259 0 
L 628 0 
L 628 4666 
z
" transform="scale(0.015625)"/>
      <path id="DejaVuSans-41" d="M 2188 4044 
L 1331 1722 
L 3047 1722 
L 2188 4044 
z
M 1831 4666 
L 2547 4666 
L 4325 0 
L 3669 0 
L 3244 1197 
L 1141 1197 
L 716 0 
L 50 0 
L 1831 4666 
z
" transform="scale(0.015625)"/>
      <path id="DejaVuSans-50" d="M 1259 4147 
L 1259 2394 
L 2053 2394 
Q 2494 2394 2734 2622 
Q 2975 2850 2975 3272 
Q 2975 3691 2734 3919 
Q 2494 4147 2053 4147 
L 1259 4147 
z
M 628 4666 
L 2053 4666 
Q 2838 4666 3239 4311 
Q 3641 3956 3641 3272 
Q 3641 2581 3239 2228 
Q 2838 1875 2053 1875 
L 1259 1875 
L 1259 0 
L 628 0 
L 628 4666 
z
" transform="scale(0.015625)"/>
      <path id="DejaVuSans-45" d="M 628 4666 
L 3578 4666 
L 3578 4134 
L 1259 4134 
L 1259 2753 
L 3481 2753 
L 3481 2222 
L 1259 2222 
L 1259 531 
L 3634 531 
L 3634 0 
L 628 0 
L 628 4666 
z
" transform="scale(0.015625)"/>
      <path id="DejaVuSans-64" d="M 2906 2969 
L 2906 4863 
L 3481 4863 
L 3481 0 
L 2906 0 
L 2906 525 
Q 2725 213 2448 61 
Q 2172 -91 1784 -91 
Q 1150 -91 751 415 
Q 353 922 353 1747 
Q 353 2572 751 3078 
Q 1150 3584 1784 3584 
Q 2172 3584 2448 3432 
Q 2725 3281 2906 2969 
z
M 947 1747 
Q 947 1113 1208 752 
Q 1469 391 1925 391 
Q 2381 391 2643 752 
Q 2906 1113 2906 1747 
Q 2906 2381 2643 2742 
Q 2381 3103 1925 3103 
Q 1469 3103 1208 2742 
Q 947 2381 947 1747 
z
" transform="scale(0.015625)"/>
      <path id="DejaVuSans-6f" d="M 1959 3097 
Q 1497 3097 1228 2736 
Q 959 2375 959 1747 
Q 959 1119 1226 758 
Q 1494 397 1959 397 
Q 2419 397 2687 759 
Q 2956 1122 2956 1747 
Q 2956 2369 2687 2733 
Q 2419 3097 1959 3097 
z
M 1959 3584 
Q 2709 3584 3137 3096 
Q 3566 2609 3566 1747 
Q 3566 888 3137 398 
Q 2709 -91 1959 -91 
Q 1206 -91 779 398 
Q 353 888 353 1747 
Q 353 2609 779 3096 
Q 1206 3584 1959 3584 
z
" transform="scale(0.015625)"/>
      <path id="DejaVuSans-69" d="M 603 3500 
L 1178 3500 
L 1178 0 
L 603 0 
L 603 3500 
z
M 603 4863 
L 1178 4863 
L 1178 4134 
L 603 4134 
L 603 4863 
z
" transform="scale(0.015625)"/>
     </defs>
     <use xlink:href="#DejaVuSans-46"/>
     <use xlink:href="#DejaVuSans-61" x="48.394531"/>
     <use xlink:href="#DejaVuSans-73" x="109.673828"/>
     <use xlink:href="#DejaVuSans-74" x="161.773438"/>
     <use xlink:href="#DejaVuSans-41" x="200.982422"/>
     <use xlink:href="#DejaVuSans-50" x="269.390625"/>
     <use xlink:href="#DejaVuSans-49" x="329.693359"/>
     <use xlink:href="#DejaVuSans-20" x="359.185547"/>
     <use xlink:href="#DejaVuSans-45" x="390.972656"/>
     <use xlink:href="#DejaVuSans-6e" x="454.15625"/>
     <use xlink:href="#DejaVuSans-64" x="517.535156"/>
     <use xlink:href="#DejaVuSans-70" x="581.011719"/>
     <use xlink:href="#DejaVuSans-6f" x="644.488281"/>
     <use xlink:href="#DejaVuSans-69" x="705.669922"/>
     <use xlink:href="#DejaVuSans-6e" x="733.453125"/>
     <use xlink:href="#DejaVuSans-74" x="796.832031"/>
     <use xlink:href="#DejaVuSans-3a" x="836.041016"/>
    </g>
    <!-- /generate_and_execute_sql/ -->
    <g transform="translate(432.696563 274.463063) scale(0.12 -0.12)">
     <defs>
      <path id="DejaVuSans-2f" d="M 1625 4666 
L 2156 4666 
L 531 -594 
L 0 -594 
L 1625 4666 
z
" transform="scale(0.015625)"/>
      <path id="DejaVuSans-5f" d="M 3263 -1063 
L 3263 -1509 
L -63 -1509 
L -63 -1063 
L 3263 -1063 
z
" transform="scale(0.015625)"/>
      <path id="DejaVuSans-78" d="M 3513 3500 
L 2247 1797 
L 3578 0 
L 2900 0 
L 1881 1375 
L 863 0 
L 184 0 
L 1544 1831 
L 300 3500 
L 978 3500 
L 1906 2253 
L 2834 3500 
L 3513 3500 
z
" transform="scale(0.015625)"/>
      <path id="DejaVuSans-63" d="M 3122 3366 
L 3122 2828 
Q 2878 2963 2633 3030 
Q 2388 3097 2138 3097 
Q 1578 3097 1268 2742 
Q 959 2388 959 1747 
Q 959 1106 1268 751 
Q 1578 397 2138 397 
Q 2388 397 2633 464 
Q 2878 531 3122 666 
L 3122 134 
Q 2881 22 2623 -34 
Q 2366 -91 2075 -91 
Q 1284 -91 818 406 
Q 353 903 353 1747 
Q 353 2603 823 3093 
Q 1294 3584 2113 3584 
Q 2378 3584 2631 3529 
Q 2884 3475 3122 3366 
z
" transform="scale(0.015625)"/>
      <path id="DejaVuSans-71" d="M 947 1747 
Q 947 1113 1208 752 
Q 1469 391 1925 391 
Q 2381 391 2643 752 
Q 2906 1113 2906 1747 
Q 2906 2381 2643 2742 
Q 2381 3103 1925 3103 
Q 1469 3103 1208 2742 
Q 947 2381 947 1747 
z
M 2906 525 
Q 2725 213 2448 61 
Q 2172 -91 1784 -91 
Q 1150 -91 751 415 
Q 353 922 353 1747 
Q 353 2572 751 3078 
Q 1150 3584 1784 3584 
Q 2172 3584 2448 3432 
Q 2725 3281 2906 2969 
L 2906 3500 
L 3481 3500 
L 3481 -1331 
L 2906 -1331 
L 2906 525 
z
" transform="scale(0.015625)"/>
     </defs>
     <use xlink:href="#DejaVuSans-2f"/>
     <use xlink:href="#DejaVuSans-67" x="33.691406"/>
     <use xlink:href="#DejaVuSans-65" x="97.167969"/>
     <use xlink:href="#DejaVuSans-6e" x="158.691406"/>
     <use xlink:href="#DejaVuSans-65" x="222.070312"/>
     <use xlink:href="#DejaVuSans-72" x="283.59375"/>
     <use xlink:href="#DejaVuSans-61" x="324.707031"/>
     <use xlink:href="#DejaVuSans-74" x="385.986328"/>
     <use xlink:href="#DejaVuSans-65" x="425.195312"/>
     <use xlink:href="#DejaVuSans-5f" x="486.71875"/>
     <use xlink:href="#DejaVuSans-61" x="536.71875"/>
     <use xlink:href="#DejaVuSans-6e" x="597.998047"/>
     <use xlink:href="#DejaVuSans-64" x="661.376953"/>
     <use xlink:href="#DejaVuSans-5f" x="724.853516"/>
     <use xlink:href="#DejaVuSans-65" x="774.853516"/>
     <use xlink:href="#DejaVuSans-78" x="834.626953"/>
     <use xlink:href="#DejaVuSans-65" x="890.681641"/>
     <use xlink:href="#DejaVuSans-63" x="952.205078"/>
     <use xlink:href="#DejaVuSans-75" x="1007.185547"/>
     <use xlink:href="#DejaVuSans-74" x="1070.564453"/>
     <use xlink:href="#DejaVuSans-65" x="1109.773438"/>
     <use xlink:href="#DejaVuSans-5f" x="1171.296875"/>
     <use xlink:href="#DejaVuSans-73" x="1221.296875"/>
     <use xlink:href="#DejaVuSans-71" x="1273.396484"/>
     <use xlink:href="#DejaVuSans-6c" x="1336.873047"/>
     <use xlink:href="#DejaVuSans-2f" x="1364.65625"/>
    </g>
   </g>
   <g id="text_4">
    <!-- Function: -->
    <g transform="translate(489.060938 340.225687) scale(0.12 -0.12)">
     <use xlink:href="#DejaVuSans-46"/>
     <use xlink:href="#DejaVuSans-75" x="52.019531"/>
     <use xlink:href="#DejaVuSans-6e" x="115.398438"/>
     <use xlink:href="#DejaVuSans-63" x="178.777344"/>
     <use xlink:href="#DejaVuSans-74" x="233.757812"/>
     <use xlink:href="#DejaVuSans-69" x="272.966797"/>
     <use xlink:href="#DejaVuSans-6f" x="300.75"/>
     <use xlink:href="#DejaVuSans-6e" x="361.931641"/>
     <use xlink:href="#DejaVuSans-3a" x="425.310547"/>
    </g>
    <!-- generate_and_execute_sql -->
    <g transform="translate(436.739063 353.663063) scale(0.12 -0.12)">
     <use xlink:href="#DejaVuSans-67"/>
     <use xlink:href="#DejaVuSans-65" x="63.476562"/>
     <use xlink:href="#DejaVuSans-6e" x="125"/>
     <use xlink:href="#DejaVuSans-65" x="188.378906"/>
     <use xlink:href="#DejaVuSans-72" x="249.902344"/>
     <use xlink:href="#DejaVuSans-61" x="291.015625"/>
     <use xlink:href="#DejaVuSans-74" x="352.294922"/>
     <use xlink:href="#DejaVuSans-65" x="391.503906"/>
     <use xlink:href="#DejaVuSans-5f" x="453.027344"/>
     <use xlink:href="#DejaVuSans-61" x="503.027344"/>
     <use xlink:href="#DejaVuSans-6e" x="564.306641"/>
     <use xlink:href="#DejaVuSans-64" x="627.685547"/>
     <use xlink:href="#DejaVuSans-5f" x="691.162109"/>
     <use xlink:href="#DejaVuSans-65" x="741.162109"/>
     <use xlink:href="#DejaVuSans-78" x="800.935547"/>
     <use xlink:href="#DejaVuSans-65" x="856.990234"/>
     <use xlink:href="#DejaVuSans-63" x="918.513672"/>
     <use xlink:href="#DejaVuSans-75" x="973.494141"/>
     <use xlink:href="#DejaVuSans-74" x="1036.873047"/>
     <use xlink:href="#DejaVuSans-65" x="1076.082031"/>
     <use xlink:href="#DejaVuSans-5f" x="1137.605469"/>
     <use xlink:href="#DejaVuSans-73" x="1187.605469"/>
     <use xlink:href="#DejaVuSans-71" x="1239.705078"/>
     <use xlink:href="#DejaVuSans-6c" x="1303.181641"/>
    </g>
   </g>
   <g id="text_5">
    <!-- Module: -->
    <g transform="translate(492.760312 419.425687) scale(0.12 -0.12)">
     <defs>
      <path id="DejaVuSans-4d" d="M 628 4666 
L 1569 4666 
L 2759 1491 
L 3956 4666 
L 4897 4666 
L 4897 0 
L 4281 0 
L 4281 4097 
L 3078 897 
L 2444 897 
L 1241 4097 
L 1241 0 
L 628 0 
L 628 4666 
z
" transform="scale(0.015625)"/>
     </defs>
     <use xlink:href="#DejaVuSans-4d"/>
     <use xlink:href="#DejaVuSans-6f" x="86.279297"/>
     <use xlink:href="#DejaVuSans-64" x="147.460938"/>
     <use xlink:href="#DejaVuSans-75" x="210.9375"/>
     <use xlink:href="#DejaVuSans-6c" x="274.316406"/>
     <use xlink:href="#DejaVuSans-65" x="302.099609"/>
     <use xlink:href="#DejaVuSans-3a" x="363.623047"/>
    </g>
    <!-- openai_rag -->
    <g transform="translate(483.329063 432.863063) scale(0.12 -0.12)">
     <use xlink:href="#DejaVuSans-6f"/>
     <use xlink:href="#DejaVuSans-70" x="61.181641"/>
     <use xlink:href="#DejaVuSans-65" x="124.658203"/>
     <use xlink:href="#DejaVuSans-6e" x="186.181641"/>
     <use xlink:href="#DejaVuSans-61" x="249.560547"/>
     <use xlink:href="#DejaVuSans-69" x="310.839844"/>
     <use xlink:href="#DejaVuSans-5f" x="338.623047"/>
     <use xlink:href="#DejaVuSans-72" x="388.623047"/>
     <use xlink:href="#DejaVuSans-61" x="429.736328"/>
     <use xlink:href="#DejaVuSans-67" x="491.015625"/>
    </g>
   </g>
   <g id="text_6">
    <!-- Retrieve Contexts -->
    <g transform="translate(463.05 498.792563) scale(0.12 -0.12)">
     <defs>
      <path id="DejaVuSans-52" d="M 2841 2188 
Q 3044 2119 3236 1894 
Q 3428 1669 3622 1275 
L 4263 0 
L 3584 0 
L 2988 1197 
Q 2756 1666 2539 1819 
Q 2322 1972 1947 1972 
L 1259 1972 
L 1259 0 
L 628 0 
L 628 4666 
L 2053 4666 
Q 2853 4666 3247 4331 
Q 3641 3997 3641 3322 
Q 3641 2881 3436 2590 
Q 3231 2300 2841 2188 
z
M 1259 4147 
L 1259 2491 
L 2053 2491 
Q 2509 2491 2742 2702 
Q 2975 2913 2975 3322 
Q 2975 3731 2742 3939 
Q 2509 4147 2053 4147 
L 1259 4147 
z
" transform="scale(0.015625)"/>
      <path id="DejaVuSans-76" d="M 191 3500 
L 800 3500 
L 1894 563 
L 2988 3500 
L 3597 3500 
L 2284 0 
L 1503 0 
L 191 3500 
z
" transform="scale(0.015625)"/>
      <path id="DejaVuSans-43" d="M 4122 4306 
L 4122 3641 
Q 3803 3938 3442 4084 
Q 3081 4231 2675 4231 
Q 1875 4231 1450 3742 
Q 1025 3253 1025 2328 
Q 1025 1406 1450 917 
Q 1875 428 2675 428 
Q 3081 428 3442 575 
Q 3803 722 4122 1019 
L 4122 359 
Q 3791 134 3420 21 
Q 3050 -91 2638 -91 
Q 1578 -91 968 557 
Q 359 1206 359 2328 
Q 359 3453 968 4101 
Q 1578 4750 2638 4750 
Q 3056 4750 3426 4639 
Q 3797 4528 4122 4306 
z
" transform="scale(0.015625)"/>
     </defs>
     <use xlink:href="#DejaVuSans-52"/>
     <use xlink:href="#DejaVuSans-65" x="64.982422"/>
     <use xlink:href="#DejaVuSans-74" x="126.505859"/>
     <use xlink:href="#DejaVuSans-72" x="165.714844"/>
     <use xlink:href="#DejaVuSans-69" x="206.828125"/>
     <use xlink:href="#DejaVuSans-65" x="234.611328"/>
     <use xlink:href="#DejaVuSans-76" x="296.134766"/>
     <use xlink:href="#DejaVuSans-65" x="355.314453"/>
     <use xlink:href="#DejaVuSans-20" x="416.837891"/>
     <use xlink:href="#DejaVuSans-43" x="448.625"/>
     <use xlink:href="#DejaVuSans-6f" x="518.449219"/>
     <use xlink:href="#DejaVuSans-6e" x="579.630859"/>
     <use xlink:href="#DejaVuSans-74" x="643.009766"/>
     <use xlink:href="#DejaVuSans-65" x="682.21875"/>
     <use xlink:href="#DejaVuSans-78" x="741.992188"/>
     <use xlink:href="#DejaVuSans-74" x="801.171875"/>
     <use xlink:href="#DejaVuSans-73" x="840.380859"/>
    </g>
    <!-- from Vector Store -->
    <g transform="translate(463.850625 512.229938) scale(0.12 -0.12)">
     <defs>
      <path id="DejaVuSans-66" d="M 2375 4863 
L 2375 4384 
L 1825 4384 
Q 1516 4384 1395 4259 
Q 1275 4134 1275 3809 
L 1275 3500 
L 2222 3500 
L 2222 3053 
L 1275 3053 
L 1275 0 
L 697 0 
L 697 3053 
L 147 3053 
L 147 3500 
L 697 3500 
L 697 3744 
Q 697 4328 969 4595 
Q 1241 4863 1831 4863 
L 2375 4863 
z
" transform="scale(0.015625)"/>
      <path id="DejaVuSans-6d" d="M 3328 2828 
Q 3544 3216 3844 3400 
Q 4144 3584 4550 3584 
Q 5097 3584 5394 3201 
Q 5691 2819 5691 2113 
L 5691 0 
L 5113 0 
L 5113 2094 
Q 5113 2597 4934 2840 
Q 4756 3084 4391 3084 
Q 3944 3084 3684 2787 
Q 3425 2491 3425 1978 
L 3425 0 
L 2847 0 
L 2847 2094 
Q 2847 2600 2669 2842 
Q 2491 3084 2119 3084 
Q 1678 3084 1418 2786 
Q 1159 2488 1159 1978 
L 1159 0 
L 581 0 
L 581 3500 
L 1159 3500 
L 1159 2956 
Q 1356 3278 1631 3431 
Q 1906 3584 2284 3584 
Q 2666 3584 2933 3390 
Q 3200 3197 3328 2828 
z
" transform="scale(0.015625)"/>
      <path id="DejaVuSans-56" d="M 1831 0 
L 50 4666 
L 709 4666 
L 2188 738 
L 3669 4666 
L 4325 4666 
L 2547 0 
L 1831 0 
z
" transform="scale(0.015625)"/>
     </defs>
     <use xlink:href="#DejaVuSans-66"/>
     <use xlink:href="#DejaVuSans-72" x="35.205078"/>
     <use xlink:href="#DejaVuSans-6f" x="74.068359"/>
     <use xlink:href="#DejaVuSans-6d" x="135.25"/>
     <use xlink:href="#DejaVuSans-20" x="232.662109"/>
     <use xlink:href="#DejaVuSans-56" x="264.449219"/>
     <use xlink:href="#DejaVuSans-65" x="325.107422"/>
     <use xlink:href="#DejaVuSans-63" x="386.630859"/>
     <use xlink:href="#DejaVuSans-74" x="441.611328"/>
     <use xlink:href="#DejaVuSans-6f" x="480.820312"/>
     <use xlink:href="#DejaVuSans-72" x="542.001953"/>
     <use xlink:href="#DejaVuSans-20" x="583.115234"/>
     <use xlink:href="#DejaVuSans-53" x="614.902344"/>
     <use xlink:href="#DejaVuSans-74" x="678.378906"/>
     <use xlink:href="#DejaVuSans-6f" x="717.587891"/>
     <use xlink:href="#DejaVuSans-72" x="778.769531"/>
     <use xlink:href="#DejaVuSans-65" x="817.632812"/>
    </g>
   </g>
   <g id="text_7">
    <!-- Generate SQL Query -->
    <g transform="translate(454.652813 577.992563) scale(0.12 -0.12)">
     <defs>
      <path id="DejaVuSans-47" d="M 3809 666 
L 3809 1919 
L 2778 1919 
L 2778 2438 
L 4434 2438 
L 4434 434 
Q 4069 175 3628 42 
Q 3188 -91 2688 -91 
Q 1594 -91 976 548 
Q 359 1188 359 2328 
Q 359 3472 976 4111 
Q 1594 4750 2688 4750 
Q 3144 4750 3555 4637 
Q 3966 4525 4313 4306 
L 4313 3634 
Q 3963 3931 3569 4081 
Q 3175 4231 2741 4231 
Q 1884 4231 1454 3753 
Q 1025 3275 1025 2328 
Q 1025 1384 1454 906 
Q 1884 428 2741 428 
Q 3075 428 3337 486 
Q 3600 544 3809 666 
z
" transform="scale(0.015625)"/>
     </defs>
     <use xlink:href="#DejaVuSans-47"/>
     <use xlink:href="#DejaVuSans-65" x="77.490234"/>
     <use xlink:href="#DejaVuSans-6e" x="139.013672"/>
     <use xlink:href="#DejaVuSans-65" x="202.392578"/>
     <use xlink:href="#DejaVuSans-72" x="263.916016"/>
     <use xlink:href="#DejaVuSans-61" x="305.029297"/>
     <use xlink:href="#DejaVuSans-74" x="366.308594"/>
     <use xlink:href="#DejaVuSans-65" x="405.517578"/>
     <use xlink:href="#DejaVuSans-20" x="467.041016"/>
     <use xlink:href="#DejaVuSans-53" x="498.828125"/>
     <use xlink:href="#DejaVuSans-51" x="562.304688"/>
     <use xlink:href="#DejaVuSans-4c" x="641.015625"/>
     <use xlink:href="#DejaVuSans-20" x="696.728516"/>
     <use xlink:href="#DejaVuSans-51" x="728.515625"/>
     <use xlink:href="#DejaVuSans-75" x="807.226562"/>
     <use xlink:href="#DejaVuSans-65" x="870.605469"/>
     <use xlink:href="#DejaVuSans-72" x="932.128906"/>
     <use xlink:href="#DejaVuSans-79" x="973.242188"/>
    </g>
    <!-- with OpenAI -->
    <g transform="translate(480.06375 591.429938) scale(0.12 -0.12)">
     <defs>
      <path id="DejaVuSans-77" d="M 269 3500 
L 844 3500 
L 1563 769 
L 2278 3500 
L 2956 3500 
L 3675 769 
L 4391 3500 
L 4966 3500 
L 4050 0 
L 3372 0 
L 2619 2869 
L 1863 0 
L 1184 0 
L 269 3500 
z
" transform="scale(0.015625)"/>
      <path id="DejaVuSans-68" d="M 3513 2113 
L 3513 0 
L 2938 0 
L 2938 2094 
Q 2938 2591 2744 2837 
Q 2550 3084 2163 3084 
Q 1697 3084 1428 2787 
Q 1159 2491 1159 1978 
L 1159 0 
L 581 0 
L 581 4863 
L 1159 4863 
L 1159 2956 
Q 1366 3272 1645 3428 
Q 1925 3584 2291 3584 
Q 2894 3584 3203 3211 
Q 3513 2838 3513 2113 
z
" transform="scale(0.015625)"/>
      <path id="DejaVuSans-4f" d="M 2522 4238 
Q 1834 4238 1429 3725 
Q 1025 3213 1025 2328 
Q 1025 1447 1429 934 
Q 1834 422 2522 422 
Q 3209 422 3611 934 
Q 4013 1447 4013 2328 
Q 4013 3213 3611 3725 
Q 3209 4238 2522 4238 
z
M 2522 4750 
Q 3503 4750 4090 4092 
Q 4678 3434 4678 2328 
Q 4678 1225 4090 567 
Q 3503 -91 2522 -91 
Q 1538 -91 948 565 
Q 359 1222 359 2328 
Q 359 3434 948 4092 
Q 1538 4750 2522 4750 
z
" transform="scale(0.015625)"/>
     </defs>
     <use xlink:href="#DejaVuSans-77"/>
     <use xlink:href="#DejaVuSans-69" x="81.787109"/>
     <use xlink:href="#DejaVuSans-74" x="109.570312"/>
     <use xlink:href="#DejaVuSans-68" x="148.779297"/>
     <use xlink:href="#DejaVuSans-20" x="212.158203"/>
     <use xlink:href="#DejaVuSans-4f" x="243.945312"/>
     <use xlink:href="#DejaVuSans-70" x="322.65625"/>
     <use xlink:href="#DejaVuSans-65" x="386.132812"/>
     <use xlink:href="#DejaVuSans-6e" x="447.65625"/>
     <use xlink:href="#DejaVuSans-41" x="511.035156"/>
     <use xlink:href="#DejaVuSans-49" x="579.443359"/>
    </g>
   </g>
   <g id="text_8">
    <!-- Module: -->
    <g transform="translate(492.760312 657.025688) scale(0.12 -0.12)">
     <use xlink:href="#DejaVuSans-4d"/>
     <use xlink:href="#DejaVuSans-6f" x="86.279297"/>
     <use xlink:href="#DejaVuSans-64" x="147.460938"/>
     <use xlink:href="#DejaVuSans-75" x="210.9375"/>
     <use xlink:href="#DejaVuSans-6c" x="274.316406"/>
     <use xlink:href="#DejaVuSans-65" x="302.099609"/>
     <use xlink:href="#DejaVuSans-3a" x="363.623047"/>
    </g>
    <!-- sql_executor -->
    <g transform="translate(478.764375 670.463062) scale(0.12 -0.12)">
     <use xlink:href="#DejaVuSans-73"/>
     <use xlink:href="#DejaVuSans-71" x="52.099609"/>
     <use xlink:href="#DejaVuSans-6c" x="115.576172"/>
     <use xlink:href="#DejaVuSans-5f" x="143.359375"/>
     <use xlink:href="#DejaVuSans-65" x="193.359375"/>
     <use xlink:href="#DejaVuSans-78" x="253.132812"/>
     <use xlink:href="#DejaVuSans-65" x="309.1875"/>
     <use xlink:href="#DejaVuSans-63" x="370.710938"/>
     <use xlink:href="#DejaVuSans-75" x="425.691406"/>
     <use xlink:href="#DejaVuSans-74" x="489.070312"/>
     <use xlink:href="#DejaVuSans-6f" x="528.279297"/>
     <use xlink:href="#DejaVuSans-72" x="589.460938"/>
    </g>
   </g>
   <g id="text_9">
    <!-- Execute SQL Query -->
    <g transform="translate(458.683125 736.392563) scale(0.12 -0.12)">
     <use xlink:href="#DejaVuSans-45"/>
     <use xlink:href="#DejaVuSans-78" x="63.183594"/>
     <use xlink:href="#DejaVuSans-65" x="119.238281"/>
     <use xlink:href="#DejaVuSans-63" x="180.761719"/>
     <use xlink:href="#DejaVuSans-75" x="235.742188"/>
     <use xlink:href="#DejaVuSans-74" x="299.121094"/>
     <use xlink:href="#DejaVuSans-65" x="338.330078"/>
     <use xlink:href="#DejaVuSans-20" x="399.853516"/>
     <use xlink:href="#DejaVuSans-53" x="431.640625"/>
     <use xlink:href="#DejaVuSans-51" x="495.117188"/>
     <use xlink:href="#DejaVuSans-4c" x="573.828125"/>
     <use xlink:href="#DejaVuSans-20" x="629.541016"/>
     <use xlink:href="#DejaVuSans-51" x="661.328125"/>
     <use xlink:href="#DejaVuSans-75" x="740.039062"/>
     <use xlink:href="#DejaVuSans-65" x="803.417969"/>
     <use xlink:href="#DejaVuSans-72" x="864.941406"/>
     <use xlink:href="#DejaVuSans-79" x="906.054688"/>
    </g>
    <!-- on PostgreSQL -->
    <g transform="translate(472.962188 749.829938) scale(0.12 -0.12)">
     <use xlink:href="#DejaVuSans-6f"/>
     <use xlink:href="#DejaVuSans-6e" x="61.181641"/>
     <use xlink:href="#DejaVuSans-20" x="124.560547"/>
     <use xlink:href="#DejaVuSans-50" x="156.347656"/>
     <use xlink:href="#DejaVuSans-6f" x="213.025391"/>
     <use xlink:href="#DejaVuSans-73" x="274.207031"/>
     <use xlink:href="#DejaVuSans-74" x="326.306641"/>
     <use xlink:href="#DejaVuSans-67" x="365.515625"/>
     <use xlink:href="#DejaVuSans-72" x="428.992188"/>
     <use xlink:href="#DejaVuSans-65" x="467.855469"/>
     <use xlink:href="#DejaVuSans-53" x="529.378906"/>
     <use xlink:href="#DejaVuSans-51" x="592.855469"/>
     <use xlink:href="#DejaVuSans-4c" x="671.566406"/>
    </g>
   </g>
   <g id="text_10">
    <!-- Return SQL Query -->
    <g transform="translate(462.765938 815.592562) scale(0.12 -0.12)">
     <use xlink:href="#DejaVuSans-52"/>
     <use xlink:href="#DejaVuSans-65" x="64.982422"/>
     <use xlink:href="#DejaVuSans-74" x="126.505859"/>
     <use xlink:href="#DejaVuSans-75" x="165.714844"/>
     <use xlink:href="#DejaVuSans-72" x="229.09375"/>
     <use xlink:href="#DejaVuSans-6e" x="268.457031"/>
     <use xlink:href="#DejaVuSans-20" x="331.835938"/>
     <use xlink:href="#DejaVuSans-53" x="363.623047"/>
     <use xlink:href="#DejaVuSans-51" x="427.099609"/>
     <use xlink:href="#DejaVuSans-4c" x="505.810547"/>
     <use xlink:href="#DejaVuSans-20" x="561.523438"/>
     <use xlink:href="#DejaVuSans-51" x="593.310547"/>
     <use xlink:href="#DejaVuSans-75" x="672.021484"/>
     <use xlink:href="#DejaVuSans-65" x="735.400391"/>
     <use xlink:href="#DejaVuSans-72" x="796.923828"/>
     <use xlink:href="#DejaVuSans-79" x="838.037109"/>
    </g>
    <!-- and Execution Result -->
    <g transform="translate(453.518438 829.029938) scale(0.12 -0.12)">
     <use xlink:href="#DejaVuSans-61"/>
     <use xlink:href="#DejaVuSans-6e" x="61.279297"/>
     <use xlink:href="#DejaVuSans-64" x="124.658203"/>
     <use xlink:href="#DejaVuSans-20" x="188.134766"/>
     <use xlink:href="#DejaVuSans-45" x="219.921875"/>
     <use xlink:href="#DejaVuSans-78" x="283.105469"/>
     <use xlink:href="#DejaVuSans-65" x="339.160156"/>
     <use xlink:href="#DejaVuSans-63" x="400.683594"/>
     <use xlink:href="#DejaVuSans-75" x="455.664062"/>
     <use xlink:href="#DejaVuSans-74" x="519.042969"/>
     <use xlink:href="#DejaVuSans-69" x="558.251953"/>
     <use xlink:href="#DejaVuSans-6f" x="586.035156"/>
     <use xlink:href="#DejaVuSans-6e" x="647.216797"/>
     <use xlink:href="#DejaVuSans-20" x="710.595703"/>
     <use xlink:href="#DejaVuSans-52" x="742.382812"/>
     <use xlink:href="#DejaVuSans-65" x="807.365234"/>
     <use xlink:href="#DejaVuSans-73" x="868.888672"/>
     <use xlink:href="#DejaVuSans-75" x="920.988281"/>
     <use xlink:href="#DejaVuSans-6c" x="984.367188"/>
     <use xlink:href="#DejaVuSans-74" x="1012.150391"/>
    </g>
   </g>
   <g id="text_11">
    <!-- Display Results -->
    <g transform="translate(470.912813 894.792563) scale(0.12 -0.12)">
     <defs>
      <path id="DejaVuSans-44" d="M 1259 4147 
L 1259 519 
L 2022 519 
Q 2988 519 3436 956 
Q 3884 1394 3884 2338 
Q 3884 3275 3436 3711 
Q 2988 4147 2022 4147 
L 1259 4147 
z
M 628 4666 
L 1925 4666 
Q 3281 4666 3915 4102 
Q 4550 3538 4550 2338 
Q 4550 1131 3912 565 
Q 3275 0 1925 0 
L 628 0 
L 628 4666 
z
" transform="scale(0.015625)"/>
     </defs>
     <use xlink:href="#DejaVuSans-44"/>
     <use xlink:href="#DejaVuSans-69" x="77.001953"/>
     <use xlink:href="#DejaVuSans-73" x="104.785156"/>
     <use xlink:href="#DejaVuSans-70" x="156.884766"/>
     <use xlink:href="#DejaVuSans-6c" x="220.361328"/>
     <use xlink:href="#DejaVuSans-61" x="248.144531"/>
     <use xlink:href="#DejaVuSans-79" x="309.423828"/>
     <use xlink:href="#DejaVuSans-20" x="368.603516"/>
     <use xlink:href="#DejaVuSans-52" x="400.390625"/>
     <use xlink:href="#DejaVuSans-65" x="465.373047"/>
     <use xlink:href="#DejaVuSans-73" x="526.896484"/>
     <use xlink:href="#DejaVuSans-75" x="578.996094"/>
     <use xlink:href="#DejaVuSans-6c" x="642.375"/>
     <use xlink:href="#DejaVuSans-74" x="670.158203"/>
     <use xlink:href="#DejaVuSans-73" x="709.367188"/>
    </g>
    <!-- to User -->
    <g transform="translate(494.994375 908.229938) scale(0.12 -0.12)">
     <use xlink:href="#DejaVuSans-74"/>
     <use xlink:href="#DejaVuSans-6f" x="39.208984"/>
     <use xlink:href="#DejaVuSans-20" x="100.390625"/>
     <use xlink:href="#DejaVuSans-55" x="132.177734"/>
     <use xlink:href="#DejaVuSans-73" x="205.371094"/>
     <use xlink:href="#DejaVuSans-65" x="257.470703"/>
     <use xlink:href="#DejaVuSans-72" x="318.994141"/>
    </g>
   </g>
   <g id="text_12">
    <!-- End -->
    <g transform="translate(505.197188 980.71125) scale(0.12 -0.12)">
     <use xlink:href="#DejaVuSans-45"/>
     <use xlink:href="#DejaVuSans-6e" x="63.183594"/>
     <use xlink:href="#DejaVuSans-64" x="126.5625"/>
    </g>
   </g>
   <g id="patch_19">
    <path d="M 516.6 127.996436 
Q 516.6 145.799832 516.6 161.926178 
" style="fill: none; stroke: #000000; stroke-width: 1.5; stroke-linecap: round"/>
    <path d="M 518.6 157.926178 
L 516.6 161.926178 
L 514.6 157.926178 
" style="fill: none; stroke: #000000; stroke-width: 1.5; stroke-linecap: round"/>
   </g>
   <g id="patch_20">
    <path d="M 516.6 207.196436 
Q 516.6 224.999832 516.6 241.126178 
" style="fill: none; stroke: #000000; stroke-width: 1.5; stroke-linecap: round"/>
    <path d="M 518.6 237.126178 
L 516.6 241.126178 
L 514.6 237.126178 
" style="fill: none; stroke: #000000; stroke-width: 1.5; stroke-linecap: round"/>
   </g>
   <g id="patch_21">
    <path d="M 516.6 286.396436 
Q 516.6 304.199832 516.6 320.326178 
" style="fill: none; stroke: #000000; stroke-width: 1.5; stroke-linecap: round"/>
    <path d="M 518.6 316.326178 
L 516.6 320.326178 
L 514.6 316.326178 
" style="fill: none; stroke: #000000; stroke-width: 1.5; stroke-linecap: round"/>
   </g>
   <g id="patch_22">
    <path d="M 516.6 365.596436 
Q 516.6 383.399832 516.6 399.526178 
" style="fill: none; stroke: #000000; stroke-width: 1.5; stroke-linecap: round"/>
    <path d="M 518.6 395.526178 
L 516.6 399.526178 
L 514.6 395.526178 
" style="fill: none; stroke: #000000; stroke-width: 1.5; stroke-linecap: round"/>
   </g>
   <g id="patch_23">
    <path d="M 516.6 444.796436 
Q 516.6 462.599832 516.6 478.726178 
" style="fill: none; stroke: #000000; stroke-width: 1.5; stroke-linecap: round"/>
    <path d="M 518.6 474.726178 
L 516.6 478.726178 
L 514.6 474.726178 
" style="fill: none; stroke: #000000; stroke-width: 1.5; stroke-linecap: round"/>
   </g>
   <g id="patch_24">
    <path d="M 516.6 523.996436 
Q 516.6 541.799832 516.6 557.926178 
" style="fill: none; stroke: #000000; stroke-width: 1.5; stroke-linecap: round"/>
    <path d="M 518.6 553.926178 
L 516.6 557.926178 
L 514.6 553.926178 
" style="fill: none; stroke: #000000; stroke-width: 1.5; stroke-linecap: round"/>
   </g>
   <g id="patch_25">
    <path d="M 516.6 603.196436 
Q 516.6 620.999832 516.6 637.126178 
" style="fill: none; stroke: #000000; stroke-width: 1.5; stroke-linecap: round"/>
    <path d="M 518.6 633.126178 
L 516.6 637.126178 
L 514.6 633.126178 
" style="fill: none; stroke: #000000; stroke-width: 1.5; stroke-linecap: round"/>
   </g>
   <g id="text_13">
    <!-- Start -->
    <g transform="translate(189.463125 386.71125) scale(0.12 -0.12)">
     <use xlink:href="#DejaVuSans-53"/>
     <use xlink:href="#DejaVuSans-74" x="63.476562"/>
     <use xlink:href="#DejaVuSans-61" x="102.685547"/>
     <use xlink:href="#DejaVuSans-72" x="163.964844"/>
     <use xlink:href="#DejaVuSans-74" x="205.078125"/>
    </g>
   </g>
   <g id="text_14">
    <!-- Process PDF: -->
    <g transform="translate(166.210313 459.025688) scale(0.12 -0.12)">
     <use xlink:href="#DejaVuSans-50"/>
     <use xlink:href="#DejaVuSans-72" x="58.552734"/>
     <use xlink:href="#DejaVuSans-6f" x="97.416016"/>
     <use xlink:href="#DejaVuSans-63" x="158.597656"/>
     <use xlink:href="#DejaVuSans-65" x="213.578125"/>
     <use xlink:href="#DejaVuSans-73" x="275.101562"/>
     <use xlink:href="#DejaVuSans-73" x="327.201172"/>
     <use xlink:href="#DejaVuSans-20" x="379.300781"/>
     <use xlink:href="#DejaVuSans-50" x="411.087891"/>
     <use xlink:href="#DejaVuSans-44" x="471.390625"/>
     <use xlink:href="#DejaVuSans-46" x="548.392578"/>
     <use xlink:href="#DejaVuSans-3a" x="598.162109"/>
    </g>
    <!-- table_descriptions.pdf -->
    <g transform="translate(137.799375 472.463063) scale(0.12 -0.12)">
     <defs>
      <path id="DejaVuSans-62" d="M 3116 1747 
Q 3116 2381 2855 2742 
Q 2594 3103 2138 3103 
Q 1681 3103 1420 2742 
Q 1159 2381 1159 1747 
Q 1159 1113 1420 752 
Q 1681 391 2138 391 
Q 2594 391 2855 752 
Q 3116 1113 3116 1747 
z
M 1159 2969 
Q 1341 3281 1617 3432 
Q 1894 3584 2278 3584 
Q 2916 3584 3314 3078 
Q 3713 2572 3713 1747 
Q 3713 922 3314 415 
Q 2916 -91 2278 -91 
Q 1894 -91 1617 61 
Q 1341 213 1159 525 
L 1159 0 
L 581 0 
L 581 4863 
L 1159 4863 
L 1159 2969 
z
" transform="scale(0.015625)"/>
      <path id="DejaVuSans-2e" d="M 684 794 
L 1344 794 
L 1344 0 
L 684 0 
L 684 794 
z
" transform="scale(0.015625)"/>
     </defs>
     <use xlink:href="#DejaVuSans-74"/>
     <use xlink:href="#DejaVuSans-61" x="39.208984"/>
     <use xlink:href="#DejaVuSans-62" x="100.488281"/>
     <use xlink:href="#DejaVuSans-6c" x="163.964844"/>
     <use xlink:href="#DejaVuSans-65" x="191.748047"/>
     <use xlink:href="#DejaVuSans-5f" x="253.271484"/>
     <use xlink:href="#DejaVuSans-64" x="303.271484"/>
     <use xlink:href="#DejaVuSans-65" x="366.748047"/>
     <use xlink:href="#DejaVuSans-73" x="428.271484"/>
     <use xlink:href="#DejaVuSans-63" x="480.371094"/>
     <use xlink:href="#DejaVuSans-72" x="535.351562"/>
     <use xlink:href="#DejaVuSans-69" x="576.464844"/>
     <use xlink:href="#DejaVuSans-70" x="604.248047"/>
     <use xlink:href="#DejaVuSans-74" x="667.724609"/>
     <use xlink:href="#DejaVuSans-69" x="706.933594"/>
     <use xlink:href="#DejaVuSans-6f" x="734.716797"/>
     <use xlink:href="#DejaVuSans-6e" x="795.898438"/>
     <use xlink:href="#DejaVuSans-73" x="859.277344"/>
     <use xlink:href="#DejaVuSans-2e" x="911.376953"/>
     <use xlink:href="#DejaVuSans-70" x="943.164062"/>
     <use xlink:href="#DejaVuSans-64" x="1006.640625"/>
     <use xlink:href="#DejaVuSans-66" x="1070.117188"/>
    </g>
   </g>
   <g id="text_15">
    <!-- Create Embeddings -->
    <g transform="translate(145.120313 545.11125) scale(0.12 -0.12)">
     <use xlink:href="#DejaVuSans-43"/>
     <use xlink:href="#DejaVuSans-72" x="69.824219"/>
     <use xlink:href="#DejaVuSans-65" x="108.6875"/>
     <use xlink:href="#DejaVuSans-61" x="170.210938"/>
     <use xlink:href="#DejaVuSans-74" x="231.490234"/>
     <use xlink:href="#DejaVuSans-65" x="270.699219"/>
     <use xlink:href="#DejaVuSans-20" x="332.222656"/>
     <use xlink:href="#DejaVuSans-45" x="364.009766"/>
     <use xlink:href="#DejaVuSans-6d" x="427.193359"/>
     <use xlink:href="#DejaVuSans-62" x="524.605469"/>
     <use xlink:href="#DejaVuSans-65" x="588.082031"/>
     <use xlink:href="#DejaVuSans-64" x="649.605469"/>
     <use xlink:href="#DejaVuSans-64" x="713.082031"/>
     <use xlink:href="#DejaVuSans-69" x="776.558594"/>
     <use xlink:href="#DejaVuSans-6e" x="804.341797"/>
     <use xlink:href="#DejaVuSans-67" x="867.720703"/>
     <use xlink:href="#DejaVuSans-73" x="931.197266"/>
    </g>
   </g>
   <g id="text_16">
    <!-- Store Embeddings -->
    <g transform="translate(149.198438 617.592562) scale(0.12 -0.12)">
     <use xlink:href="#DejaVuSans-53"/>
     <use xlink:href="#DejaVuSans-74" x="63.476562"/>
     <use xlink:href="#DejaVuSans-6f" x="102.685547"/>
     <use xlink:href="#DejaVuSans-72" x="163.867188"/>
     <use xlink:href="#DejaVuSans-65" x="202.730469"/>
     <use xlink:href="#DejaVuSans-20" x="264.253906"/>
     <use xlink:href="#DejaVuSans-45" x="296.041016"/>
     <use xlink:href="#DejaVuSans-6d" x="359.224609"/>
     <use xlink:href="#DejaVuSans-62" x="456.636719"/>
     <use xlink:href="#DejaVuSans-65" x="520.113281"/>
     <use xlink:href="#DejaVuSans-64" x="581.636719"/>
     <use xlink:href="#DejaVuSans-64" x="645.113281"/>
     <use xlink:href="#DejaVuSans-69" x="708.589844"/>
     <use xlink:href="#DejaVuSans-6e" x="736.373047"/>
     <use xlink:href="#DejaVuSans-67" x="799.751953"/>
     <use xlink:href="#DejaVuSans-73" x="863.228516"/>
    </g>
    <!-- in Qdrant -->
    <g transform="translate(175.913438 631.029937) scale(0.12 -0.12)">
     <use xlink:href="#DejaVuSans-69"/>
     <use xlink:href="#DejaVuSans-6e" x="27.783203"/>
     <use xlink:href="#DejaVuSans-20" x="91.162109"/>
     <use xlink:href="#DejaVuSans-51" x="122.949219"/>
     <use xlink:href="#DejaVuSans-64" x="201.660156"/>
     <use xlink:href="#DejaVuSans-72" x="265.136719"/>
     <use xlink:href="#DejaVuSans-61" x="306.25"/>
     <use xlink:href="#DejaVuSans-6e" x="367.529297"/>
     <use xlink:href="#DejaVuSans-74" x="430.908203"/>
    </g>
   </g>
   <g id="text_17">
    <!-- End -->
    <g transform="translate(192.717187 703.51125) scale(0.12 -0.12)">
     <use xlink:href="#DejaVuSans-45"/>
     <use xlink:href="#DejaVuSans-6e" x="63.183594"/>
     <use xlink:href="#DejaVuSans-64" x="126.5625"/>
    </g>
   </g>
   <g id="patch_26">
    <path d="M 204.12 405.196436 
Q 204.12 422.999832 204.12 439.126178 
" style="fill: none; stroke: #000000; stroke-width: 1.5; stroke-linecap: round"/>
    <path d="M 206.12 435.126178 
L 204.12 439.126178 
L 202.12 435.126178 
" style="fill: none; stroke: #000000; stroke-width: 1.5; stroke-linecap: round"/>
   </g>
   <g id="patch_27">
    <path d="M 204.12 484.396436 
Q 204.12 502.199832 204.12 518.326178 
" style="fill: none; stroke: #000000; stroke-width: 1.5; stroke-linecap: round"/>
    <path d="M 206.12 514.326178 
L 204.12 518.326178 
L 202.12 514.326178 
" style="fill: none; stroke: #000000; stroke-width: 1.5; stroke-linecap: round"/>
   </g>
   <g id="patch_28">
    <path d="M 204.12 563.596436 
Q 204.12 581.399832 204.12 597.526178 
" style="fill: none; stroke: #000000; stroke-width: 1.5; stroke-linecap: round"/>
    <path d="M 206.12 593.526178 
L 204.12 597.526178 
L 202.12 593.526178 
" style="fill: none; stroke: #000000; stroke-width: 1.5; stroke-linecap: round"/>
   </g>
   <g id="patch_29">
    <path d="M 436.48218 442.8 
Q 360.361348 442.8 285.917568 442.8 
" style="fill: none; stroke-dasharray: 5.55,2.4; stroke-dashoffset: 0; stroke: #000000; stroke-width: 1.5; stroke-linecap: round"/>
    <path d="M 289.917568 444.8 
L 285.917568 442.8 
L 289.917568 440.8 
" style="fill: none; stroke-dasharray: 5.55,2.4; stroke-dashoffset: 0; stroke: #000000; stroke-width: 1.5; stroke-linecap: round"/>
   </g>
   <g id="patch_30">
    <path d="M 436.88985 523.2091 
Q 360.361347 581.398976 285.167812 638.573784 
" style="fill: none; stroke-dasharray: 5.55,2.4; stroke-dashoffset: 0; stroke: #000000; stroke-width: 1.5; stroke-linecap: round"/>
    <path d="M 289.562434 637.744748 
L 285.167812 638.573784 
L 287.141356 634.560665 
" style="fill: none; stroke-dasharray: 5.55,2.4; stroke-dashoffset: 0; stroke: #000000; stroke-width: 1.5; stroke-linecap: round"/>
   </g>
  </g>
 </g>
 <defs>
  <clipPath id="p0c525e8e83">
   <rect x="126" y="86.4" width="781.2" height="554.4"/>
  </clipPath>
 </defs>
</svg>
